<mxfile host="Electron" agent="Mozilla/5.0 (Windows NT 10.0; Win64; x64) AppleWebKit/537.36 (KHTML, like Gecko) draw.io/25.0.1 Chrome/128.0.6613.186 Electron/32.2.6 Safari/537.36" version="25.0.1" pages="2">
  <diagram id="ZNLMa6NuQS9rF1U6yLBb" name="Class">
    <mxGraphModel dx="645" dy="817" grid="1" gridSize="10" guides="1" tooltips="1" connect="1" arrows="1" fold="1" page="1" pageScale="1" pageWidth="827" pageHeight="1169" math="0" shadow="0">
      <root>
        <mxCell id="0" />
        <mxCell id="1" parent="0" />
        <mxCell id="Dh1BNLaKfbrA8YzyNQ19-1" value="User" style="swimlane;fontStyle=1;align=center;verticalAlign=top;childLayout=stackLayout;horizontal=1;startSize=26;horizontalStack=0;resizeParent=1;resizeParentMax=0;resizeLast=0;collapsible=1;marginBottom=0;whiteSpace=wrap;html=1;" parent="1" vertex="1">
          <mxGeometry x="320" y="40" width="160" height="138" as="geometry">
            <mxRectangle x="320" y="80" width="70" height="30" as="alternateBounds" />
          </mxGeometry>
        </mxCell>
        <mxCell id="Dh1BNLaKfbrA8YzyNQ19-2" value="-id: String;" style="text;strokeColor=none;fillColor=none;align=left;verticalAlign=top;spacingLeft=4;spacingRight=4;overflow=hidden;rotatable=0;points=[[0,0.5],[1,0.5]];portConstraint=eastwest;whiteSpace=wrap;html=1;" parent="Dh1BNLaKfbrA8YzyNQ19-1" vertex="1">
          <mxGeometry y="26" width="160" height="26" as="geometry" />
        </mxCell>
        <mxCell id="Dh1BNLaKfbrA8YzyNQ19-5" value="-username: String;" style="text;strokeColor=none;fillColor=none;align=left;verticalAlign=top;spacingLeft=4;spacingRight=4;overflow=hidden;rotatable=0;points=[[0,0.5],[1,0.5]];portConstraint=eastwest;whiteSpace=wrap;html=1;" parent="Dh1BNLaKfbrA8YzyNQ19-1" vertex="1">
          <mxGeometry y="52" width="160" height="26" as="geometry" />
        </mxCell>
        <mxCell id="Dh1BNLaKfbrA8YzyNQ19-6" value="-password: String;" style="text;strokeColor=none;fillColor=none;align=left;verticalAlign=top;spacingLeft=4;spacingRight=4;overflow=hidden;rotatable=0;points=[[0,0.5],[1,0.5]];portConstraint=eastwest;whiteSpace=wrap;html=1;" parent="Dh1BNLaKfbrA8YzyNQ19-1" vertex="1">
          <mxGeometry y="78" width="160" height="26" as="geometry" />
        </mxCell>
        <mxCell id="Dh1BNLaKfbrA8YzyNQ19-7" value="-role: String;" style="text;strokeColor=none;fillColor=none;align=left;verticalAlign=top;spacingLeft=4;spacingRight=4;overflow=hidden;rotatable=0;points=[[0,0.5],[1,0.5]];portConstraint=eastwest;whiteSpace=wrap;html=1;" parent="Dh1BNLaKfbrA8YzyNQ19-1" vertex="1">
          <mxGeometry y="104" width="160" height="26" as="geometry" />
        </mxCell>
        <mxCell id="Dh1BNLaKfbrA8YzyNQ19-3" value="" style="line;strokeWidth=1;fillColor=none;align=left;verticalAlign=middle;spacingTop=-1;spacingLeft=3;spacingRight=3;rotatable=0;labelPosition=right;points=[];portConstraint=eastwest;strokeColor=inherit;" parent="Dh1BNLaKfbrA8YzyNQ19-1" vertex="1">
          <mxGeometry y="130" width="160" height="8" as="geometry" />
        </mxCell>
        <mxCell id="vN_Mr8777Evo0_8Av_sA-18" style="edgeStyle=elbowEdgeStyle;rounded=0;orthogonalLoop=1;jettySize=auto;html=1;exitX=0.5;exitY=0;exitDx=0;exitDy=0;entryX=0.5;entryY=1;entryDx=0;entryDy=0;elbow=vertical;endArrow=blockThin;endFill=0;endSize=20;" parent="1" source="vN_Mr8777Evo0_8Av_sA-1" target="Dh1BNLaKfbrA8YzyNQ19-1" edge="1">
          <mxGeometry relative="1" as="geometry" />
        </mxCell>
        <mxCell id="vN_Mr8777Evo0_8Av_sA-1" value="Teacher" style="swimlane;fontStyle=1;align=center;verticalAlign=top;childLayout=stackLayout;horizontal=1;startSize=26;horizontalStack=0;resizeParent=1;resizeParentMax=0;resizeLast=0;collapsible=1;marginBottom=0;whiteSpace=wrap;html=1;" parent="1" vertex="1">
          <mxGeometry x="40" y="320" width="160" height="60" as="geometry" />
        </mxCell>
        <mxCell id="vN_Mr8777Evo0_8Av_sA-2" value="+ field: type" style="text;strokeColor=none;fillColor=none;align=left;verticalAlign=top;spacingLeft=4;spacingRight=4;overflow=hidden;rotatable=0;points=[[0,0.5],[1,0.5]];portConstraint=eastwest;whiteSpace=wrap;html=1;" parent="vN_Mr8777Evo0_8Av_sA-1" vertex="1">
          <mxGeometry y="26" width="160" height="26" as="geometry" />
        </mxCell>
        <mxCell id="vN_Mr8777Evo0_8Av_sA-3" value="" style="line;strokeWidth=1;fillColor=none;align=left;verticalAlign=middle;spacingTop=-1;spacingLeft=3;spacingRight=3;rotatable=0;labelPosition=right;points=[];portConstraint=eastwest;strokeColor=inherit;" parent="vN_Mr8777Evo0_8Av_sA-1" vertex="1">
          <mxGeometry y="52" width="160" height="8" as="geometry" />
        </mxCell>
        <mxCell id="vN_Mr8777Evo0_8Av_sA-19" style="edgeStyle=elbowEdgeStyle;rounded=0;orthogonalLoop=1;jettySize=auto;html=1;exitX=0.5;exitY=0;exitDx=0;exitDy=0;elbow=vertical;endArrow=blockThin;endFill=0;endSize=20;" parent="1" source="vN_Mr8777Evo0_8Av_sA-9" target="Dh1BNLaKfbrA8YzyNQ19-1" edge="1">
          <mxGeometry relative="1" as="geometry" />
        </mxCell>
        <mxCell id="vN_Mr8777Evo0_8Av_sA-9" value="Student" style="swimlane;fontStyle=1;align=center;verticalAlign=top;childLayout=stackLayout;horizontal=1;startSize=26;horizontalStack=0;resizeParent=1;resizeParentMax=0;resizeLast=0;collapsible=1;marginBottom=0;whiteSpace=wrap;html=1;" parent="1" vertex="1">
          <mxGeometry x="320" y="320" width="200" height="112" as="geometry" />
        </mxCell>
        <mxCell id="vN_Mr8777Evo0_8Av_sA-10" value="-birthDay: date;" style="text;strokeColor=none;fillColor=none;align=left;verticalAlign=top;spacingLeft=4;spacingRight=4;overflow=hidden;rotatable=0;points=[[0,0.5],[1,0.5]];portConstraint=eastwest;whiteSpace=wrap;html=1;" parent="vN_Mr8777Evo0_8Av_sA-9" vertex="1">
          <mxGeometry y="26" width="200" height="26" as="geometry" />
        </mxCell>
        <mxCell id="0XGi0xnHWkdu8ip8EBw5-6" value="-enrollementDate: date;" style="text;strokeColor=none;fillColor=none;align=left;verticalAlign=top;spacingLeft=4;spacingRight=4;overflow=hidden;rotatable=0;points=[[0,0.5],[1,0.5]];portConstraint=eastwest;whiteSpace=wrap;html=1;" vertex="1" parent="vN_Mr8777Evo0_8Av_sA-9">
          <mxGeometry y="52" width="200" height="26" as="geometry" />
        </mxCell>
        <mxCell id="0XGi0xnHWkdu8ip8EBw5-5" value="&lt;font face=&quot;Helvetica&quot;&gt;-grade:&amp;nbsp;&lt;span style=&quot;color: rgb(12, 13, 14);&quot;&gt;Integer{1&amp;lt;=&lt;/span&gt;&lt;/font&gt;grade&lt;font face=&quot;Helvetica&quot;&gt;&lt;span style=&quot;color: rgb(12, 13, 14);&quot;&gt;&amp;lt;=6}&lt;/span&gt;;&lt;/font&gt;" style="text;strokeColor=none;fillColor=none;align=left;verticalAlign=top;spacingLeft=4;spacingRight=4;overflow=hidden;rotatable=0;points=[[0,0.5],[1,0.5]];portConstraint=eastwest;whiteSpace=wrap;html=1;" vertex="1" parent="vN_Mr8777Evo0_8Av_sA-9">
          <mxGeometry y="78" width="200" height="26" as="geometry" />
        </mxCell>
        <mxCell id="vN_Mr8777Evo0_8Av_sA-11" value="" style="line;strokeWidth=1;fillColor=none;align=left;verticalAlign=middle;spacingTop=-1;spacingLeft=3;spacingRight=3;rotatable=0;labelPosition=right;points=[];portConstraint=eastwest;strokeColor=inherit;" parent="vN_Mr8777Evo0_8Av_sA-9" vertex="1">
          <mxGeometry y="104" width="200" height="8" as="geometry" />
        </mxCell>
        <mxCell id="vN_Mr8777Evo0_8Av_sA-20" style="edgeStyle=elbowEdgeStyle;rounded=0;orthogonalLoop=1;jettySize=auto;html=1;exitX=0.5;exitY=0;exitDx=0;exitDy=0;entryX=0.5;entryY=1;entryDx=0;entryDy=0;elbow=vertical;endArrow=blockThin;endFill=0;endSize=20;" parent="1" source="vN_Mr8777Evo0_8Av_sA-13" target="Dh1BNLaKfbrA8YzyNQ19-1" edge="1">
          <mxGeometry relative="1" as="geometry">
            <mxPoint x="360" y="60" as="targetPoint" />
          </mxGeometry>
        </mxCell>
        <mxCell id="vN_Mr8777Evo0_8Av_sA-13" value="Admin" style="swimlane;fontStyle=1;align=center;verticalAlign=top;childLayout=stackLayout;horizontal=1;startSize=26;horizontalStack=0;resizeParent=1;resizeParentMax=0;resizeLast=0;collapsible=1;marginBottom=0;whiteSpace=wrap;html=1;" parent="1" vertex="1">
          <mxGeometry x="640" y="320" width="160" height="34" as="geometry" />
        </mxCell>
        <mxCell id="vN_Mr8777Evo0_8Av_sA-15" value="" style="line;strokeWidth=1;fillColor=none;align=left;verticalAlign=middle;spacingTop=-1;spacingLeft=3;spacingRight=3;rotatable=0;labelPosition=right;points=[];portConstraint=eastwest;strokeColor=inherit;" parent="vN_Mr8777Evo0_8Av_sA-13" vertex="1">
          <mxGeometry y="26" width="160" height="8" as="geometry" />
        </mxCell>
        <mxCell id="vN_Mr8777Evo0_8Av_sA-21" value="Course" style="swimlane;fontStyle=1;align=center;verticalAlign=top;childLayout=stackLayout;horizontal=1;startSize=26;horizontalStack=0;resizeParent=1;resizeParentMax=0;resizeLast=0;collapsible=1;marginBottom=0;whiteSpace=wrap;html=1;" parent="1" vertex="1">
          <mxGeometry x="40" y="760" width="160" height="138" as="geometry" />
        </mxCell>
        <mxCell id="vN_Mr8777Evo0_8Av_sA-22" value="-id: String;" style="text;strokeColor=none;fillColor=none;align=left;verticalAlign=top;spacingLeft=4;spacingRight=4;overflow=hidden;rotatable=0;points=[[0,0.5],[1,0.5]];portConstraint=eastwest;whiteSpace=wrap;html=1;" parent="vN_Mr8777Evo0_8Av_sA-21" vertex="1">
          <mxGeometry y="26" width="160" height="26" as="geometry" />
        </mxCell>
        <mxCell id="vN_Mr8777Evo0_8Av_sA-53" value="-subject: Subject;" style="text;strokeColor=none;fillColor=none;align=left;verticalAlign=top;spacingLeft=4;spacingRight=4;overflow=hidden;rotatable=0;points=[[0,0.5],[1,0.5]];portConstraint=eastwest;whiteSpace=wrap;html=1;" parent="vN_Mr8777Evo0_8Av_sA-21" vertex="1">
          <mxGeometry y="52" width="160" height="26" as="geometry" />
        </mxCell>
        <mxCell id="vN_Mr8777Evo0_8Av_sA-25" value="-title: String;" style="text;strokeColor=none;fillColor=none;align=left;verticalAlign=top;spacingLeft=4;spacingRight=4;overflow=hidden;rotatable=0;points=[[0,0.5],[1,0.5]];portConstraint=eastwest;whiteSpace=wrap;html=1;" parent="vN_Mr8777Evo0_8Av_sA-21" vertex="1">
          <mxGeometry y="78" width="160" height="26" as="geometry" />
        </mxCell>
        <mxCell id="vN_Mr8777Evo0_8Av_sA-26" value="-content: String;" style="text;strokeColor=none;fillColor=none;align=left;verticalAlign=top;spacingLeft=4;spacingRight=4;overflow=hidden;rotatable=0;points=[[0,0.5],[1,0.5]];portConstraint=eastwest;whiteSpace=wrap;html=1;" parent="vN_Mr8777Evo0_8Av_sA-21" vertex="1">
          <mxGeometry y="104" width="160" height="26" as="geometry" />
        </mxCell>
        <mxCell id="vN_Mr8777Evo0_8Av_sA-23" value="" style="line;strokeWidth=1;fillColor=none;align=left;verticalAlign=middle;spacingTop=-1;spacingLeft=3;spacingRight=3;rotatable=0;labelPosition=right;points=[];portConstraint=eastwest;strokeColor=inherit;" parent="vN_Mr8777Evo0_8Av_sA-21" vertex="1">
          <mxGeometry y="130" width="160" height="8" as="geometry" />
        </mxCell>
        <mxCell id="vN_Mr8777Evo0_8Av_sA-27" value="Exercise" style="swimlane;fontStyle=1;align=center;verticalAlign=top;childLayout=stackLayout;horizontal=1;startSize=26;horizontalStack=0;resizeParent=1;resizeParentMax=0;resizeLast=0;collapsible=1;marginBottom=0;whiteSpace=wrap;html=1;" parent="1" vertex="1">
          <mxGeometry x="340" y="760" width="160" height="138" as="geometry" />
        </mxCell>
        <mxCell id="vN_Mr8777Evo0_8Av_sA-28" value="-id: String;" style="text;strokeColor=none;fillColor=none;align=left;verticalAlign=top;spacingLeft=4;spacingRight=4;overflow=hidden;rotatable=0;points=[[0,0.5],[1,0.5]];portConstraint=eastwest;whiteSpace=wrap;html=1;" parent="vN_Mr8777Evo0_8Av_sA-27" vertex="1">
          <mxGeometry y="26" width="160" height="26" as="geometry" />
        </mxCell>
        <mxCell id="vN_Mr8777Evo0_8Av_sA-54" value="-subject: Subject;" style="text;strokeColor=none;fillColor=none;align=left;verticalAlign=top;spacingLeft=4;spacingRight=4;overflow=hidden;rotatable=0;points=[[0,0.5],[1,0.5]];portConstraint=eastwest;whiteSpace=wrap;html=1;" parent="vN_Mr8777Evo0_8Av_sA-27" vertex="1">
          <mxGeometry y="52" width="160" height="26" as="geometry" />
        </mxCell>
        <mxCell id="vN_Mr8777Evo0_8Av_sA-29" value="-title: String;" style="text;strokeColor=none;fillColor=none;align=left;verticalAlign=top;spacingLeft=4;spacingRight=4;overflow=hidden;rotatable=0;points=[[0,0.5],[1,0.5]];portConstraint=eastwest;whiteSpace=wrap;html=1;" parent="vN_Mr8777Evo0_8Av_sA-27" vertex="1">
          <mxGeometry y="78" width="160" height="26" as="geometry" />
        </mxCell>
        <mxCell id="vN_Mr8777Evo0_8Av_sA-30" value="-content: String;" style="text;strokeColor=none;fillColor=none;align=left;verticalAlign=top;spacingLeft=4;spacingRight=4;overflow=hidden;rotatable=0;points=[[0,0.5],[1,0.5]];portConstraint=eastwest;whiteSpace=wrap;html=1;" parent="vN_Mr8777Evo0_8Av_sA-27" vertex="1">
          <mxGeometry y="104" width="160" height="26" as="geometry" />
        </mxCell>
        <mxCell id="vN_Mr8777Evo0_8Av_sA-31" value="" style="line;strokeWidth=1;fillColor=none;align=left;verticalAlign=middle;spacingTop=-1;spacingLeft=3;spacingRight=3;rotatable=0;labelPosition=right;points=[];portConstraint=eastwest;strokeColor=inherit;" parent="vN_Mr8777Evo0_8Av_sA-27" vertex="1">
          <mxGeometry y="130" width="160" height="8" as="geometry" />
        </mxCell>
        <mxCell id="vN_Mr8777Evo0_8Av_sA-33" value="Quiz" style="swimlane;fontStyle=1;align=center;verticalAlign=top;childLayout=stackLayout;horizontal=1;startSize=26;horizontalStack=0;resizeParent=1;resizeParentMax=0;resizeLast=0;collapsible=1;marginBottom=0;whiteSpace=wrap;html=1;" parent="1" vertex="1">
          <mxGeometry x="640" y="760" width="160" height="138" as="geometry" />
        </mxCell>
        <mxCell id="vN_Mr8777Evo0_8Av_sA-34" value="-id: String;" style="text;strokeColor=none;fillColor=none;align=left;verticalAlign=top;spacingLeft=4;spacingRight=4;overflow=hidden;rotatable=0;points=[[0,0.5],[1,0.5]];portConstraint=eastwest;whiteSpace=wrap;html=1;" parent="vN_Mr8777Evo0_8Av_sA-33" vertex="1">
          <mxGeometry y="26" width="160" height="26" as="geometry" />
        </mxCell>
        <mxCell id="vN_Mr8777Evo0_8Av_sA-55" value="-subject: Subject;" style="text;strokeColor=none;fillColor=none;align=left;verticalAlign=top;spacingLeft=4;spacingRight=4;overflow=hidden;rotatable=0;points=[[0,0.5],[1,0.5]];portConstraint=eastwest;whiteSpace=wrap;html=1;" parent="vN_Mr8777Evo0_8Av_sA-33" vertex="1">
          <mxGeometry y="52" width="160" height="26" as="geometry" />
        </mxCell>
        <mxCell id="vN_Mr8777Evo0_8Av_sA-35" value="-title: String;" style="text;strokeColor=none;fillColor=none;align=left;verticalAlign=top;spacingLeft=4;spacingRight=4;overflow=hidden;rotatable=0;points=[[0,0.5],[1,0.5]];portConstraint=eastwest;whiteSpace=wrap;html=1;" parent="vN_Mr8777Evo0_8Av_sA-33" vertex="1">
          <mxGeometry y="78" width="160" height="26" as="geometry" />
        </mxCell>
        <mxCell id="vN_Mr8777Evo0_8Av_sA-36" value="-questions: List&amp;lt;Question&amp;gt;;" style="text;strokeColor=none;fillColor=none;align=left;verticalAlign=top;spacingLeft=4;spacingRight=4;overflow=hidden;rotatable=0;points=[[0,0.5],[1,0.5]];portConstraint=eastwest;whiteSpace=wrap;html=1;" parent="vN_Mr8777Evo0_8Av_sA-33" vertex="1">
          <mxGeometry y="104" width="160" height="26" as="geometry" />
        </mxCell>
        <mxCell id="vN_Mr8777Evo0_8Av_sA-37" value="" style="line;strokeWidth=1;fillColor=none;align=left;verticalAlign=middle;spacingTop=-1;spacingLeft=3;spacingRight=3;rotatable=0;labelPosition=right;points=[];portConstraint=eastwest;strokeColor=inherit;" parent="vN_Mr8777Evo0_8Av_sA-33" vertex="1">
          <mxGeometry y="130" width="160" height="8" as="geometry" />
        </mxCell>
        <mxCell id="vN_Mr8777Evo0_8Av_sA-39" value="Question" style="swimlane;fontStyle=1;align=center;verticalAlign=top;childLayout=stackLayout;horizontal=1;startSize=26;horizontalStack=0;resizeParent=1;resizeParentMax=0;resizeLast=0;collapsible=1;marginBottom=0;whiteSpace=wrap;html=1;" parent="1" vertex="1">
          <mxGeometry x="60" y="1000" width="160" height="138" as="geometry" />
        </mxCell>
        <mxCell id="vN_Mr8777Evo0_8Av_sA-40" value="-id: String;" style="text;strokeColor=none;fillColor=none;align=left;verticalAlign=top;spacingLeft=4;spacingRight=4;overflow=hidden;rotatable=0;points=[[0,0.5],[1,0.5]];portConstraint=eastwest;whiteSpace=wrap;html=1;" parent="vN_Mr8777Evo0_8Av_sA-39" vertex="1">
          <mxGeometry y="26" width="160" height="26" as="geometry" />
        </mxCell>
        <mxCell id="vN_Mr8777Evo0_8Av_sA-41" value="-text: String;" style="text;strokeColor=none;fillColor=none;align=left;verticalAlign=top;spacingLeft=4;spacingRight=4;overflow=hidden;rotatable=0;points=[[0,0.5],[1,0.5]];portConstraint=eastwest;whiteSpace=wrap;html=1;" parent="vN_Mr8777Evo0_8Av_sA-39" vertex="1">
          <mxGeometry y="52" width="160" height="26" as="geometry" />
        </mxCell>
        <mxCell id="vN_Mr8777Evo0_8Av_sA-45" value="-options: List&amp;lt;String&amp;gt;;" style="text;strokeColor=none;fillColor=none;align=left;verticalAlign=top;spacingLeft=4;spacingRight=4;overflow=hidden;rotatable=0;points=[[0,0.5],[1,0.5]];portConstraint=eastwest;whiteSpace=wrap;html=1;" parent="vN_Mr8777Evo0_8Av_sA-39" vertex="1">
          <mxGeometry y="78" width="160" height="26" as="geometry" />
        </mxCell>
        <mxCell id="vN_Mr8777Evo0_8Av_sA-42" value="-correctAnswer: String;" style="text;strokeColor=none;fillColor=none;align=left;verticalAlign=top;spacingLeft=4;spacingRight=4;overflow=hidden;rotatable=0;points=[[0,0.5],[1,0.5]];portConstraint=eastwest;whiteSpace=wrap;html=1;" parent="vN_Mr8777Evo0_8Av_sA-39" vertex="1">
          <mxGeometry y="104" width="160" height="26" as="geometry" />
        </mxCell>
        <mxCell id="vN_Mr8777Evo0_8Av_sA-43" value="" style="line;strokeWidth=1;fillColor=none;align=left;verticalAlign=middle;spacingTop=-1;spacingLeft=3;spacingRight=3;rotatable=0;labelPosition=right;points=[];portConstraint=eastwest;strokeColor=inherit;" parent="vN_Mr8777Evo0_8Av_sA-39" vertex="1">
          <mxGeometry y="130" width="160" height="8" as="geometry" />
        </mxCell>
        <mxCell id="vN_Mr8777Evo0_8Av_sA-57" value="Subject" style="swimlane;fontStyle=1;align=center;verticalAlign=top;childLayout=stackLayout;horizontal=1;startSize=26;horizontalStack=0;resizeParent=1;resizeParentMax=0;resizeLast=0;collapsible=1;marginBottom=0;whiteSpace=wrap;html=1;" parent="1" vertex="1">
          <mxGeometry x="640" y="520" width="160" height="86" as="geometry" />
        </mxCell>
        <mxCell id="vN_Mr8777Evo0_8Av_sA-58" value="-id: string;" style="text;strokeColor=none;fillColor=none;align=left;verticalAlign=top;spacingLeft=4;spacingRight=4;overflow=hidden;rotatable=0;points=[[0,0.5],[1,0.5]];portConstraint=eastwest;whiteSpace=wrap;html=1;" parent="vN_Mr8777Evo0_8Av_sA-57" vertex="1">
          <mxGeometry y="26" width="160" height="26" as="geometry" />
        </mxCell>
        <mxCell id="0XGi0xnHWkdu8ip8EBw5-2" value="-name: string;" style="text;strokeColor=none;fillColor=none;align=left;verticalAlign=top;spacingLeft=4;spacingRight=4;overflow=hidden;rotatable=0;points=[[0,0.5],[1,0.5]];portConstraint=eastwest;whiteSpace=wrap;html=1;" vertex="1" parent="vN_Mr8777Evo0_8Av_sA-57">
          <mxGeometry y="52" width="160" height="26" as="geometry" />
        </mxCell>
        <mxCell id="vN_Mr8777Evo0_8Av_sA-59" value="" style="line;strokeWidth=1;fillColor=none;align=left;verticalAlign=middle;spacingTop=-1;spacingLeft=3;spacingRight=3;rotatable=0;labelPosition=right;points=[];portConstraint=eastwest;strokeColor=inherit;" parent="vN_Mr8777Evo0_8Av_sA-57" vertex="1">
          <mxGeometry y="78" width="160" height="8" as="geometry" />
        </mxCell>
        <mxCell id="vN_Mr8777Evo0_8Av_sA-61" value="Schedule" style="swimlane;fontStyle=1;align=center;verticalAlign=top;childLayout=stackLayout;horizontal=1;startSize=26;horizontalStack=0;resizeParent=1;resizeParentMax=0;resizeLast=0;collapsible=1;marginBottom=0;whiteSpace=wrap;html=1;" parent="1" vertex="1">
          <mxGeometry x="40" y="520" width="160" height="86" as="geometry" />
        </mxCell>
        <mxCell id="vN_Mr8777Evo0_8Av_sA-62" value="-id: string;" style="text;strokeColor=none;fillColor=none;align=left;verticalAlign=top;spacingLeft=4;spacingRight=4;overflow=hidden;rotatable=0;points=[[0,0.5],[1,0.5]];portConstraint=eastwest;whiteSpace=wrap;html=1;" parent="vN_Mr8777Evo0_8Av_sA-61" vertex="1">
          <mxGeometry y="26" width="160" height="26" as="geometry" />
        </mxCell>
        <mxCell id="0XGi0xnHWkdu8ip8EBw5-1" value="-file: string;" style="text;strokeColor=none;fillColor=none;align=left;verticalAlign=top;spacingLeft=4;spacingRight=4;overflow=hidden;rotatable=0;points=[[0,0.5],[1,0.5]];portConstraint=eastwest;whiteSpace=wrap;html=1;" vertex="1" parent="vN_Mr8777Evo0_8Av_sA-61">
          <mxGeometry y="52" width="160" height="26" as="geometry" />
        </mxCell>
        <mxCell id="vN_Mr8777Evo0_8Av_sA-63" value="" style="line;strokeWidth=1;fillColor=none;align=left;verticalAlign=middle;spacingTop=-1;spacingLeft=3;spacingRight=3;rotatable=0;labelPosition=right;points=[];portConstraint=eastwest;strokeColor=inherit;" parent="vN_Mr8777Evo0_8Av_sA-61" vertex="1">
          <mxGeometry y="78" width="160" height="8" as="geometry" />
        </mxCell>
        <mxCell id="vN_Mr8777Evo0_8Av_sA-65" value="ClassRoom" style="swimlane;fontStyle=1;align=center;verticalAlign=top;childLayout=stackLayout;horizontal=1;startSize=26;horizontalStack=0;resizeParent=1;resizeParentMax=0;resizeLast=0;collapsible=1;marginBottom=0;whiteSpace=wrap;html=1;" parent="1" vertex="1">
          <mxGeometry x="320" y="520" width="200" height="112" as="geometry" />
        </mxCell>
        <mxCell id="vN_Mr8777Evo0_8Av_sA-66" value="-id: string;" style="text;strokeColor=none;fillColor=none;align=left;verticalAlign=top;spacingLeft=4;spacingRight=4;overflow=hidden;rotatable=0;points=[[0,0.5],[1,0.5]];portConstraint=eastwest;whiteSpace=wrap;html=1;" parent="vN_Mr8777Evo0_8Av_sA-65" vertex="1">
          <mxGeometry y="26" width="200" height="26" as="geometry" />
        </mxCell>
        <mxCell id="0XGi0xnHWkdu8ip8EBw5-4" value="-number: Integer;" style="text;strokeColor=none;fillColor=none;align=left;verticalAlign=top;spacingLeft=4;spacingRight=4;overflow=hidden;rotatable=0;points=[[0,0.5],[1,0.5]];portConstraint=eastwest;whiteSpace=wrap;html=1;" vertex="1" parent="vN_Mr8777Evo0_8Av_sA-65">
          <mxGeometry y="52" width="200" height="26" as="geometry" />
        </mxCell>
        <mxCell id="0XGi0xnHWkdu8ip8EBw5-3" value="&lt;font face=&quot;Helvetica&quot;&gt;-grade:&amp;nbsp;&lt;span style=&quot;color: rgb(12, 13, 14);&quot;&gt;Integer{1&amp;lt;=&lt;/span&gt;&lt;/font&gt;grade&lt;font face=&quot;Helvetica&quot;&gt;&lt;span style=&quot;color: rgb(12, 13, 14);&quot;&gt;&amp;lt;=6}&lt;/span&gt;;&lt;/font&gt;" style="text;strokeColor=none;fillColor=none;align=left;verticalAlign=top;spacingLeft=4;spacingRight=4;overflow=hidden;rotatable=0;points=[[0,0.5],[1,0.5]];portConstraint=eastwest;whiteSpace=wrap;html=1;" vertex="1" parent="vN_Mr8777Evo0_8Av_sA-65">
          <mxGeometry y="78" width="200" height="26" as="geometry" />
        </mxCell>
        <mxCell id="vN_Mr8777Evo0_8Av_sA-67" value="" style="line;strokeWidth=1;fillColor=none;align=left;verticalAlign=middle;spacingTop=-1;spacingLeft=3;spacingRight=3;rotatable=0;labelPosition=right;points=[];portConstraint=eastwest;strokeColor=inherit;" parent="vN_Mr8777Evo0_8Av_sA-65" vertex="1">
          <mxGeometry y="104" width="200" height="8" as="geometry" />
        </mxCell>
      </root>
    </mxGraphModel>
  </diagram>
  <diagram name="Use case" id="3L17lnNqwkCH4lo8ERGE">
    <mxGraphModel dx="742" dy="1362" grid="1" gridSize="10" guides="1" tooltips="1" connect="1" arrows="1" fold="1" page="1" pageScale="1" pageWidth="827" pageHeight="1169" math="0" shadow="0">
      <root>
        <mxCell id="0" />
        <mxCell id="1" parent="0" />
        <mxCell id="1rC071vX5FLI3PdKlU7p-1" value="TaalomIT" style="swimlane;whiteSpace=wrap;html=1;movable=0;resizable=0;rotatable=0;deletable=0;editable=0;locked=1;connectable=0;" vertex="1" parent="1">
          <mxGeometry x="320" y="160" width="390" height="840" as="geometry" />
        </mxCell>
        <mxCell id="1rC071vX5FLI3PdKlU7p-12" value="Login" style="ellipse;whiteSpace=wrap;html=1;fontSize=15;movable=0;resizable=0;rotatable=0;deletable=0;editable=0;locked=1;connectable=0;" vertex="1" parent="1rC071vX5FLI3PdKlU7p-1">
          <mxGeometry x="120" y="40" width="120" height="40" as="geometry" />
        </mxCell>
        <mxCell id="1rC071vX5FLI3PdKlU7p-14" value="Create Course" style="ellipse;whiteSpace=wrap;html=1;fontSize=13;movable=0;resizable=0;rotatable=0;deletable=0;editable=0;locked=1;connectable=0;" vertex="1" parent="1rC071vX5FLI3PdKlU7p-1">
          <mxGeometry x="110" y="120" width="140" height="40" as="geometry" />
        </mxCell>
        <mxCell id="1rC071vX5FLI3PdKlU7p-19" value="Upload Exercise" style="ellipse;whiteSpace=wrap;html=1;fontSize=13;movable=0;resizable=0;rotatable=0;deletable=0;editable=0;locked=1;connectable=0;" vertex="1" parent="1rC071vX5FLI3PdKlU7p-1">
          <mxGeometry x="110" y="170" width="140" height="40" as="geometry" />
        </mxCell>
        <mxCell id="1rC071vX5FLI3PdKlU7p-20" value="Access Resources" style="ellipse;whiteSpace=wrap;html=1;fontSize=13;movable=0;resizable=0;rotatable=0;deletable=0;editable=0;locked=1;connectable=0;" vertex="1" parent="1rC071vX5FLI3PdKlU7p-1">
          <mxGeometry x="110" y="220" width="170" height="40" as="geometry" />
        </mxCell>
        <mxCell id="1rC071vX5FLI3PdKlU7p-21" value="Track Performance" style="ellipse;whiteSpace=wrap;html=1;fontSize=13;movable=0;resizable=0;rotatable=0;deletable=0;editable=0;locked=1;connectable=0;" vertex="1" parent="1rC071vX5FLI3PdKlU7p-1">
          <mxGeometry x="110" y="300" width="170" height="40" as="geometry" />
        </mxCell>
        <mxCell id="1rC071vX5FLI3PdKlU7p-22" value="Generate Reports" style="ellipse;whiteSpace=wrap;html=1;fontSize=13;movable=0;resizable=0;rotatable=0;deletable=0;editable=0;locked=1;connectable=0;" vertex="1" parent="1rC071vX5FLI3PdKlU7p-1">
          <mxGeometry x="110" y="350" width="170" height="40" as="geometry" />
        </mxCell>
        <mxCell id="1rC071vX5FLI3PdKlU7p-23" value="Manage Registrations" style="ellipse;whiteSpace=wrap;html=1;fontSize=13;movable=0;resizable=0;rotatable=0;deletable=0;editable=0;locked=1;connectable=0;" vertex="1" parent="1rC071vX5FLI3PdKlU7p-1">
          <mxGeometry x="110" y="430" width="210" height="40" as="geometry" />
        </mxCell>
        <mxCell id="1rC071vX5FLI3PdKlU7p-24" value="Manage Schedules" style="ellipse;whiteSpace=wrap;html=1;fontSize=13;movable=0;resizable=0;rotatable=0;deletable=0;editable=0;locked=1;connectable=0;" vertex="1" parent="1rC071vX5FLI3PdKlU7p-1">
          <mxGeometry x="110" y="480" width="170" height="40" as="geometry" />
        </mxCell>
        <mxCell id="1rC071vX5FLI3PdKlU7p-25" value="Create Quiz" style="ellipse;whiteSpace=wrap;html=1;fontSize=13;movable=0;resizable=0;rotatable=0;deletable=0;editable=0;locked=1;connectable=0;" vertex="1" parent="1rC071vX5FLI3PdKlU7p-1">
          <mxGeometry x="110" y="560" width="140" height="40" as="geometry" />
        </mxCell>
        <mxCell id="1rC071vX5FLI3PdKlU7p-26" value="Take Quiz" style="ellipse;whiteSpace=wrap;html=1;fontSize=13;movable=0;resizable=0;rotatable=0;deletable=0;editable=0;locked=1;connectable=0;" vertex="1" parent="1rC071vX5FLI3PdKlU7p-1">
          <mxGeometry x="110" y="610" width="140" height="40" as="geometry" />
        </mxCell>
        <mxCell id="1rC071vX5FLI3PdKlU7p-27" value="Grade Quiz" style="ellipse;whiteSpace=wrap;html=1;fontSize=13;movable=0;resizable=0;rotatable=0;deletable=0;editable=0;locked=1;connectable=0;" vertex="1" parent="1rC071vX5FLI3PdKlU7p-1">
          <mxGeometry x="110" y="660" width="140" height="40" as="geometry" />
        </mxCell>
        <mxCell id="1rC071vX5FLI3PdKlU7p-28" value="View Results" style="ellipse;whiteSpace=wrap;html=1;fontSize=13;movable=0;resizable=0;rotatable=0;deletable=0;editable=0;locked=1;connectable=0;" vertex="1" parent="1rC071vX5FLI3PdKlU7p-1">
          <mxGeometry x="110" y="710" width="140" height="40" as="geometry" />
        </mxCell>
        <mxCell id="1rC071vX5FLI3PdKlU7p-29" value="Analyze Results" style="ellipse;whiteSpace=wrap;html=1;fontSize=13;movable=0;resizable=0;rotatable=0;deletable=0;editable=0;locked=1;connectable=0;" vertex="1" parent="1rC071vX5FLI3PdKlU7p-1">
          <mxGeometry x="110" y="760" width="140" height="40" as="geometry" />
        </mxCell>
        <mxCell id="1rC071vX5FLI3PdKlU7p-8" style="edgeStyle=orthogonalEdgeStyle;rounded=0;orthogonalLoop=1;jettySize=auto;html=1;exitX=0.5;exitY=0;exitDx=0;exitDy=0;exitPerimeter=0;endArrow=blockThin;endFill=0;endSize=20;targetPerimeterSpacing=27;movable=0;resizable=0;rotatable=0;deletable=0;editable=0;locked=1;connectable=0;" edge="1" parent="1" source="1rC071vX5FLI3PdKlU7p-2" target="1rC071vX5FLI3PdKlU7p-6">
          <mxGeometry relative="1" as="geometry" />
        </mxCell>
        <mxCell id="1rC071vX5FLI3PdKlU7p-30" style="rounded=0;orthogonalLoop=1;jettySize=auto;html=1;exitX=0.5;exitY=0.5;exitDx=0;exitDy=0;exitPerimeter=0;entryX=0;entryY=0.5;entryDx=0;entryDy=0;endArrow=none;endFill=0;fillColor=#0050ef;strokeColor=#001DBC;movable=0;resizable=0;rotatable=0;deletable=0;editable=0;locked=1;connectable=0;" edge="1" parent="1" source="1rC071vX5FLI3PdKlU7p-2" target="1rC071vX5FLI3PdKlU7p-14">
          <mxGeometry relative="1" as="geometry" />
        </mxCell>
        <mxCell id="1rC071vX5FLI3PdKlU7p-31" style="rounded=0;orthogonalLoop=1;jettySize=auto;html=1;exitX=0.5;exitY=0.5;exitDx=0;exitDy=0;exitPerimeter=0;entryX=0;entryY=0.5;entryDx=0;entryDy=0;endArrow=none;endFill=0;fillColor=#0050ef;strokeColor=#001DBC;movable=0;resizable=0;rotatable=0;deletable=0;editable=0;locked=1;connectable=0;" edge="1" parent="1" source="1rC071vX5FLI3PdKlU7p-2" target="1rC071vX5FLI3PdKlU7p-19">
          <mxGeometry relative="1" as="geometry" />
        </mxCell>
        <mxCell id="1rC071vX5FLI3PdKlU7p-32" style="rounded=0;orthogonalLoop=1;jettySize=auto;html=1;exitX=0.5;exitY=0.5;exitDx=0;exitDy=0;exitPerimeter=0;entryX=0;entryY=0.5;entryDx=0;entryDy=0;endArrow=none;endFill=0;fillColor=#0050ef;strokeColor=#001DBC;movable=0;resizable=0;rotatable=0;deletable=0;editable=0;locked=1;connectable=0;" edge="1" parent="1" source="1rC071vX5FLI3PdKlU7p-2" target="1rC071vX5FLI3PdKlU7p-25">
          <mxGeometry relative="1" as="geometry" />
        </mxCell>
        <mxCell id="1rC071vX5FLI3PdKlU7p-33" style="rounded=0;orthogonalLoop=1;jettySize=auto;html=1;exitX=0.5;exitY=0.5;exitDx=0;exitDy=0;exitPerimeter=0;endArrow=none;endFill=0;fillColor=#0050ef;strokeColor=#001DBC;movable=0;resizable=0;rotatable=0;deletable=0;editable=0;locked=1;connectable=0;" edge="1" parent="1" source="1rC071vX5FLI3PdKlU7p-2" target="1rC071vX5FLI3PdKlU7p-21">
          <mxGeometry relative="1" as="geometry" />
        </mxCell>
        <mxCell id="1rC071vX5FLI3PdKlU7p-34" style="rounded=0;orthogonalLoop=1;jettySize=auto;html=1;exitX=0.5;exitY=0.5;exitDx=0;exitDy=0;exitPerimeter=0;entryX=0;entryY=0.5;entryDx=0;entryDy=0;endArrow=none;endFill=0;fillColor=#0050ef;strokeColor=#001DBC;movable=0;resizable=0;rotatable=0;deletable=0;editable=0;locked=1;connectable=0;" edge="1" parent="1" source="1rC071vX5FLI3PdKlU7p-2" target="1rC071vX5FLI3PdKlU7p-22">
          <mxGeometry relative="1" as="geometry" />
        </mxCell>
        <mxCell id="1rC071vX5FLI3PdKlU7p-35" style="rounded=0;orthogonalLoop=1;jettySize=auto;html=1;exitX=0.5;exitY=0.5;exitDx=0;exitDy=0;exitPerimeter=0;entryX=0;entryY=0.5;entryDx=0;entryDy=0;endArrow=none;endFill=0;fillColor=#0050ef;strokeColor=#001DBC;movable=0;resizable=0;rotatable=0;deletable=0;editable=0;locked=1;connectable=0;" edge="1" parent="1" source="1rC071vX5FLI3PdKlU7p-2" target="1rC071vX5FLI3PdKlU7p-27">
          <mxGeometry relative="1" as="geometry" />
        </mxCell>
        <mxCell id="1rC071vX5FLI3PdKlU7p-36" style="rounded=0;orthogonalLoop=1;jettySize=auto;html=1;exitX=0.5;exitY=0.5;exitDx=0;exitDy=0;exitPerimeter=0;entryX=0;entryY=0.5;entryDx=0;entryDy=0;endArrow=none;endFill=0;movable=0;resizable=0;rotatable=0;deletable=0;editable=0;locked=1;connectable=0;" edge="1" parent="1" source="1rC071vX5FLI3PdKlU7p-2" target="1rC071vX5FLI3PdKlU7p-29">
          <mxGeometry relative="1" as="geometry" />
        </mxCell>
        <mxCell id="1rC071vX5FLI3PdKlU7p-2" value="Teacher" style="shape=umlActor;verticalLabelPosition=bottom;verticalAlign=top;html=1;outlineConnect=0;fillColor=#dae8fc;strokeColor=#6c8ebf;gradientColor=#7ea6e0;movable=0;resizable=0;rotatable=0;deletable=0;editable=0;locked=1;connectable=0;" vertex="1" parent="1">
          <mxGeometry x="140" y="460" width="30" height="60" as="geometry" />
        </mxCell>
        <mxCell id="1rC071vX5FLI3PdKlU7p-9" style="edgeStyle=orthogonalEdgeStyle;rounded=0;orthogonalLoop=1;jettySize=auto;html=1;exitX=0.5;exitY=0;exitDx=0;exitDy=0;exitPerimeter=0;endArrow=blockThin;endFill=0;endSize=20;targetPerimeterSpacing=27;movable=0;resizable=0;rotatable=0;deletable=0;editable=0;locked=1;connectable=0;" edge="1" parent="1" source="1rC071vX5FLI3PdKlU7p-3" target="1rC071vX5FLI3PdKlU7p-6">
          <mxGeometry relative="1" as="geometry" />
        </mxCell>
        <mxCell id="1rC071vX5FLI3PdKlU7p-37" style="rounded=0;orthogonalLoop=1;jettySize=auto;html=1;exitX=0.5;exitY=0.5;exitDx=0;exitDy=0;exitPerimeter=0;entryX=0;entryY=0.5;entryDx=0;entryDy=0;endArrow=none;endFill=0;fillColor=#60a917;strokeColor=#2D7600;movable=0;resizable=0;rotatable=0;deletable=0;editable=0;locked=1;connectable=0;" edge="1" parent="1" source="1rC071vX5FLI3PdKlU7p-3" target="1rC071vX5FLI3PdKlU7p-20">
          <mxGeometry relative="1" as="geometry" />
        </mxCell>
        <mxCell id="1rC071vX5FLI3PdKlU7p-38" style="rounded=0;orthogonalLoop=1;jettySize=auto;html=1;exitX=0.5;exitY=0.5;exitDx=0;exitDy=0;exitPerimeter=0;entryX=0;entryY=0.5;entryDx=0;entryDy=0;endArrow=none;endFill=0;fillColor=#60a917;strokeColor=#2D7600;movable=0;resizable=0;rotatable=0;deletable=0;editable=0;locked=1;connectable=0;" edge="1" parent="1" source="1rC071vX5FLI3PdKlU7p-3" target="1rC071vX5FLI3PdKlU7p-26">
          <mxGeometry relative="1" as="geometry" />
        </mxCell>
        <mxCell id="1rC071vX5FLI3PdKlU7p-39" style="rounded=0;orthogonalLoop=1;jettySize=auto;html=1;exitX=0.5;exitY=0.5;exitDx=0;exitDy=0;exitPerimeter=0;entryX=0;entryY=0.5;entryDx=0;entryDy=0;endArrow=none;endFill=0;fillColor=#60a917;strokeColor=#2D7600;movable=0;resizable=0;rotatable=0;deletable=0;editable=0;locked=1;connectable=0;" edge="1" parent="1" source="1rC071vX5FLI3PdKlU7p-3" target="1rC071vX5FLI3PdKlU7p-28">
          <mxGeometry relative="1" as="geometry" />
        </mxCell>
        <mxCell id="1rC071vX5FLI3PdKlU7p-3" value="Student" style="shape=umlActor;verticalLabelPosition=bottom;verticalAlign=top;html=1;outlineConnect=0;fillColor=#d5e8d4;strokeColor=#82b366;gradientColor=#97d077;movable=0;resizable=0;rotatable=0;deletable=0;editable=0;locked=1;connectable=0;" vertex="1" parent="1">
          <mxGeometry x="80" y="600" width="30" height="60" as="geometry" />
        </mxCell>
        <mxCell id="1rC071vX5FLI3PdKlU7p-11" style="edgeStyle=orthogonalEdgeStyle;rounded=0;orthogonalLoop=1;jettySize=auto;html=1;exitX=0.5;exitY=0;exitDx=0;exitDy=0;exitPerimeter=0;endArrow=blockThin;endFill=0;endSize=20;targetPerimeterSpacing=27;movable=0;resizable=0;rotatable=0;deletable=0;editable=0;locked=1;connectable=0;" edge="1" parent="1" source="1rC071vX5FLI3PdKlU7p-4" target="1rC071vX5FLI3PdKlU7p-6">
          <mxGeometry relative="1" as="geometry" />
        </mxCell>
        <mxCell id="1rC071vX5FLI3PdKlU7p-40" style="rounded=0;orthogonalLoop=1;jettySize=auto;html=1;exitX=0.5;exitY=0.5;exitDx=0;exitDy=0;exitPerimeter=0;entryX=0;entryY=0.5;entryDx=0;entryDy=0;fillColor=#fa6800;strokeColor=#C73500;endArrow=none;endFill=0;movable=0;resizable=0;rotatable=0;deletable=0;editable=0;locked=1;connectable=0;" edge="1" parent="1" source="1rC071vX5FLI3PdKlU7p-4" target="1rC071vX5FLI3PdKlU7p-24">
          <mxGeometry relative="1" as="geometry" />
        </mxCell>
        <mxCell id="1rC071vX5FLI3PdKlU7p-41" style="rounded=0;orthogonalLoop=1;jettySize=auto;html=1;exitX=0.5;exitY=0.5;exitDx=0;exitDy=0;exitPerimeter=0;entryX=0;entryY=0.5;entryDx=0;entryDy=0;fillColor=#fa6800;strokeColor=#C73500;endArrow=none;endFill=0;movable=0;resizable=0;rotatable=0;deletable=0;editable=0;locked=1;connectable=0;" edge="1" parent="1" source="1rC071vX5FLI3PdKlU7p-4" target="1rC071vX5FLI3PdKlU7p-23">
          <mxGeometry relative="1" as="geometry" />
        </mxCell>
        <mxCell id="1rC071vX5FLI3PdKlU7p-42" style="rounded=0;orthogonalLoop=1;jettySize=auto;html=1;exitX=0.5;exitY=0.5;exitDx=0;exitDy=0;exitPerimeter=0;entryX=0;entryY=0.5;entryDx=0;entryDy=0;fillColor=#fa6800;strokeColor=#C73500;endArrow=none;endFill=0;movable=0;resizable=0;rotatable=0;deletable=0;editable=0;locked=1;connectable=0;" edge="1" parent="1" source="1rC071vX5FLI3PdKlU7p-4" target="1rC071vX5FLI3PdKlU7p-29">
          <mxGeometry relative="1" as="geometry" />
        </mxCell>
        <mxCell id="1rC071vX5FLI3PdKlU7p-4" value="Admin" style="shape=umlActor;verticalLabelPosition=bottom;verticalAlign=top;html=1;outlineConnect=0;fillColor=#fa6800;fontColor=#000000;strokeColor=#C73500;movable=0;resizable=0;rotatable=0;deletable=0;editable=0;locked=1;connectable=0;" vertex="1" parent="1">
          <mxGeometry x="40" y="790" width="30" height="60" as="geometry" />
        </mxCell>
        <mxCell id="1rC071vX5FLI3PdKlU7p-13" style="rounded=0;orthogonalLoop=1;jettySize=auto;html=1;entryX=0;entryY=0.5;entryDx=0;entryDy=0;endArrow=none;endFill=0;sourcePerimeterSpacing=6;exitX=0.5;exitY=0.5;exitDx=0;exitDy=0;exitPerimeter=0;movable=0;resizable=0;rotatable=0;deletable=0;editable=0;locked=1;connectable=0;" edge="1" parent="1" source="1rC071vX5FLI3PdKlU7p-6" target="1rC071vX5FLI3PdKlU7p-12">
          <mxGeometry relative="1" as="geometry">
            <mxPoint x="240" y="250" as="sourcePoint" />
          </mxGeometry>
        </mxCell>
        <mxCell id="1rC071vX5FLI3PdKlU7p-6" value="User" style="shape=umlActor;verticalLabelPosition=bottom;verticalAlign=top;html=1;outlineConnect=0;movable=0;resizable=0;rotatable=0;deletable=0;editable=0;locked=1;connectable=0;" vertex="1" parent="1">
          <mxGeometry x="80" y="220" width="30" height="60" as="geometry" />
        </mxCell>
      </root>
    </mxGraphModel>
  </diagram>
</mxfile>
